<?xml version="1.0" encoding="UTF-8"?>
<svg id="_图层_2" data-name="图层 2" xmlns="http://www.w3.org/2000/svg" xmlns:xlink="http://www.w3.org/1999/xlink" viewBox="0 0 229.23 104">
  <defs>
    <style>
      .cls-1 {
        fill: #0f7dc1;
      }

      .cls-1, .cls-2, .cls-3, .cls-4 {
        stroke-width: 0px;
      }

      .cls-2 {
        fill: url(#_未命名的渐变_7);
      }

      .cls-2, .cls-3 {
        fill-rule: evenodd;
      }

      .cls-3 {
        fill: url(#_未命名的渐变_6);
      }

      .cls-4 {
        fill: #8ec31e;
      }
    </style>
    <linearGradient id="_未命名的渐变_7" data-name="未命名的渐变 7" x1="108.56" y1="1159.45" x2="108.56" y2="1159.23" gradientTransform="translate(-53111 556533.64) scale(489.73 -480)" gradientUnits="userSpaceOnUse">
      <stop offset="0" stop-color="#9bb8c8"/>
      <stop offset="1" stop-color="#98acb8"/>
    </linearGradient>
    <linearGradient id="_未命名的渐变_6" data-name="未命名的渐变 6" x1="108.12" y1="1158.9" x2="108.4" y2="1158.7" gradientTransform="translate(-36996.16 278680.47) scale(342.53 -240.43)" gradientUnits="userSpaceOnUse">
      <stop offset="0" stop-color="#00cdde"/>
      <stop offset=".2" stop-color="#0bace2"/>
      <stop offset=".56" stop-color="#248fed"/>
      <stop offset="1" stop-color="#1f72f1"/>
    </linearGradient>
  </defs>
  <g id="_图层_1-2" data-name="图层 1">
    <g>
      <g id="_纯logo_去竖线后间距" data-name="纯logo、去竖线后间距">
        <g id="_新logo备份-2" data-name="新logo备份-2">
          <g id="_九天-彩" data-name="九天-彩">
            <g id="_编组-14" data-name="编组-14">
              <path id="_形状结合" data-name="形状结合" class="cls-2" d="M42.92,5.07l-2.85,6.4-5-2.23-25.82,57.99,5,2.23-2.85,6.4-11.4-5.07L31.52,0l11.4,5.07ZM77.8,79.55c2.16,2.33,3.95,3.78,5.62,4.6l-8.83,19.84-11.4-5.07,2.85-6.4,5,2.23,6.77-15.2ZM94.71,28.13l11.4,5.07-15.14,34.01c-.15-.07-.31-.15-.46-.23h0l-.15-.07c-.1-.05-.19-.09-.29-.14h0l-.14-.07c-1.05-.5-1.99-.93-2.09-.97h0c-.24-.12-.45-.22-.65-.31-.84-.41-1.63-.85-2.47-1.37l12.15-27.3-5-2.23,2.85-6.4Z"/>
            </g>
            <path id="_路径备份-14" data-name="路径备份-14" class="cls-3" d="M68.33,29.3c1.2-1.19,1.29-1.49,5.89.55,4.6,2.04,4.96,4.89,1.3,6.67-1.79.92-4.55,2.85-6.87,4.63-.2.15-1.21.89-1.25.92-.79.57-1.15.94-1.32,1.31-.17.37-.21.65-.22.9-.02.44,0,.83.08,1.46s.14,1.26.45,1.76c.08.12.27.2.56.23.35,0,.87.02,2.74-1.24,3.7-2.59,4.89-2.75,7.68-1.02,2.27,1.41,2.94,2.07,3.18,2.83.34,1.06-.74,1.93-3.35,2.47-.83.19-1.73.48-2.7.86-1.12.44-2.26.96-3.48,1.6-1.17.6-1.63.92-2.69,1.57-.37.23-.53.38-.69.49.11.09.54.4,1.28.93,1.12.8,3.98,3.35,7.34,6.07,4.04,3.27,6.16,4.73,8.67,5.95.2.1.41.2.65.31.04.02,3.4,1.55,4.7,2.3.53.29,3.33,1.81,3.7,2.01,3.07,1.68,4.67,2.79,5.39,3.74,1.1,1.44,0,2.51-3.07,2.71-1.18.08-1.89.17-3.79.55-1.9.38-2.62.52-3.4.57-.2.01-.39.01-.63.02-3.44.05-6.47-1.7-11.45-7.57-4.98-5.87-8.46-9.18-10.95-11.03-.86-.63-1.61-1.06-2.22-1.29,0,0-.09-.03-.27-.1-.38,1.88-.61,3.3-.68,4.26-.11,1.45-.19,2.29-.22,2.65-.23,3.74-1.46,5.5-6.35,7.93-3.69,1.84-7.53,2.42-10.1,1.85-1.11-.25-1.96-.65-2.16-1.44-.2-.79.57-1.41,1.73-1.77,7.51-2.26,9.31-4.69,11.78-13.4.21-.82.29-1.23.25-1.21-1.51.65-3.21,1.28-4.1,1.39-1.51.18-3.37.46-5.97,0-2.6-.46-4.37-2.84-4.66-4.39-.29-1.55-.28-3.11.14-5.05.41-1.94.83-3.57,1.3-5.07.47-1.5,1.14-3.14,1.46-3.81.05-.1-.78.08-2.47.53-.42.71-.73,1.25-.93,1.62-.88,1.57-1.72,3.11-2.65,4.57-.58.92-1.13,1.78-1.67,2.55-.97,1.36-1.87,2.55-2.63,3.27-4.56,4.39-7.14,5.15-8.76,3.79-.04-.04-.14-.12-.23-.19l-.12-.1s-.06-.05-.08-.06c-1.17-.81-.1-2.67,2.57-3.86,1.38-.62,2.86-2.17,4.28-4.46.67-1.07,1.18-1.92,1.73-3.07.12-.24.26-.55.36-.77.03-.05.01-.11-.03-.14-.03-.02-.07-.02-.1,0l-.04.02h0c-.17.07-.6.23-.83.31-.79.23-1.39.38-1.79.47-1.19.25-2.18.28-2.9.03-3.8-1.36-4.75-2.76-3.76-3.91.12-.14.24-.24.37-.31.11-.05.32-.14.62-.27.49-.22,1.05-.46,1.67-.72,1.75-.75,3.6-1.49,5.44-2.19,1.13-.43,2.23-.82,3.28-1.18.54-.18,1.07-.36,1.58-.52.43-.14.56-.48.47-1.06-.04-.26-.13-.53-.24-.82-.08-.21-.56-1.39-.66-1.65-.28-.77-.58-1.37-.89-2.08-.23-.52-.48-.95-.78-1.56-.3-.61-.22-1.06.15-1.27.36-.21.9-.21,1.88.06,1.37.37,3.29,1.25,4.83,2.17.88.53,1.53,1.21,1.99,2,.51.88.73,1.77.78,2.45v.12s.07-.02.07-.02c.86-.21,2.55-.63,3.88-.22l.24.08c2.02.7,3.25,1.73,3.44,3.07.14.95-.34,1.66-1.11,2.34-.85.76-1.91,3.16-2.57,5.01-.66,1.85-1.09,2.95-1.28,4.32s.16,2.91,1.28,3.27c1.12.35,3.83-.69,5.13-1.16,1.3-.47,4.07-1.71,4.48-3.28,1.03-5.37,1.23-8.64.35-9.2-.04-.03-.31-.16-.35-.18-.04-.02-.26-.13-.36-.19-.47-.25-.92-.53-1.28-.85-.42-.38-.73-.8-.92-1.09-.34-.55-.61-1.04-1.08-2.22-.47-1.18-.24-1.96.5-2.29.58-.29,1.2-.24,2.52-.2.55.02.84.03,1.17.03.69,0,1.27-.06,1.74-.21,2.07-.63,4.4-2.22,6.06-3.86Z"/>
          </g>
        </g>
      </g>
      <path class="cls-1" d="M132.44,38.42c2.06,1.31,4.18,1.66,5.67,1.71v-1.95c-1.52-.36-2.9-1.01-4.12-1.93-.71-.54-1.35-1.17-1.9-1.88l-.33-.42h6.43v-2.39h-6.15v-3.2h5.68v-2.29h-11.06l.21-.38c.26-.51.47-1.04.62-1.58h-3.32c-.16.75-.43,1.45-.82,2.11-.71,1.2-1.64,1.96-2.35,2.4v1.4c1.07-.19,2.11-.6,3.02-1.18.21-.13.4-.27.58-.42l.07-.05h3.54v.26c0,.44-.03.87-.07,1.29-.04.43-.09.9-.17,1.42l-.03.22h-6.73v2.39h6.06l-.22.43c-.07.13-.13.26-.21.39-1.44,2.36-4.2,3.15-5.53,3.4v2.33c1.61-.26,3.17-.76,4.62-1.49,1.38-.69,2.64-1.59,3.76-2.65l.2-.19.18.21c.69.8,1.49,1.48,2.36,2.04Z"/>
      <path class="cls-1" d="M139.86,26.92v13h10.03c1.33,0,2.41-1.08,2.41-2.41v-11.44h-11.59c-.47,0-.85.38-.85.85ZM143.56,28.83h5.36v6.98c0,.55-.45,1-1,1h-4.36v-7.98Z"/>
      <path class="cls-1" d="M147.82,54.92c1.42,0,2.57-1.15,2.57-2.57v-10.77h-26.42v13.34h23.85ZM128.13,44.1h18.21v2.83h-18.21v-2.83ZM128.13,49.41h18.05v1.83c0,.68-.55,1.22-1.22,1.22h-16.83v-3.06Z"/>
      <path class="cls-1" d="M160.77,30.79c-.53.5-.77,1.21-.6,1.84.14.5.6.83,1.12.83h12.72l.2.5c.05.14.1.27.16.41h3.35c-.36-1.34-.82-2.67-1.37-3.94-.44-1.03-.94-2.05-1.49-3.03h-3.25c.23.53.45,1.06.64,1.6.19.52.37,1.07.52,1.61l.1.33h-8.53l.68-.47c1.71-1.19,3.18-2.64,4.36-4.3.4-.56.77-1.15,1.1-1.76h-4.67c-.43.89-.93,1.76-1.49,2.57-.99,1.43-2.18,2.71-3.53,3.82Z"/>
      <path class="cls-1" d="M176.24,53.6v-16.53c0-.53-.43-.95-.95-.95h-13c-.59,0-1.07.48-1.07,1.07v17.73h3.7v-5.52h7.52v3.33h-2.93v2.19h5.42c.73,0,1.32-.59,1.32-1.32ZM172.42,47.09h-7.52v-3h7.52v3ZM172.42,41.8h-7.52v-3.16h7.52v3.16Z"/>
      <path class="cls-1" d="M184.58,29.34c-.24.07-.49.11-.76.14l-.29.03v-5.12h-4.11v11.58c0,1.32,1.08,2.4,2.4,2.41h10.57s0-2.77,0-2.77h-7.53c-.73,0-1.33-.6-1.33-1.33v-2.88h.27c.64.03,1.24,0,1.84-.08.85-.12,2.02-.28,3.32-1.03,1.72-.99,2.57-2.39,2.89-2.92.29-.49.54-1,.74-1.54h-4.08c-.47.96-1.68,2.9-3.92,3.51Z"/>
      <path class="cls-1" d="M192.4,54.92v-2.77h-7.53c-.73,0-1.33-.6-1.33-1.33v-3.07h.27c1.77.04,6.11-.18,7.79-3.06.25-.43.44-.91.55-1.42h-3.99c-.61.67-1.62,1.54-3.08,2.01-.4.13-.82.22-1.25.28l-.29.04v-5.46h-4.11v12.37c0,1.32,1.08,2.4,2.4,2.41h10.57Z"/>
      <g>
        <rect class="cls-4" x="176.6" y="61.37" width="2.94" height="2.94"/>
        <rect class="cls-1" x="123.54" y="63.01" width="2.62" height="20.06"/>
        <rect class="cls-1" x="160.12" y="61.37" width="2.62" height="21.7"/>
        <rect class="cls-1" x="176.75" y="66.64" width="2.62" height="16.42"/>
        <rect class="cls-1" x="182.35" y="61.37" width="2.62" height="21.7"/>
        <polygon class="cls-1" points="133.9 80.69 131.27 80.69 123.97 63.01 126.6 63.01 133.9 80.69"/>
        <rect class="cls-1" x="139.01" y="63.01" width="2.62" height="20.06" transform="translate(280.65 146.07) rotate(180)"/>
        <polygon class="cls-1" points="131.27 80.69 133.9 80.69 141.21 63.01 138.57 63.01 131.27 80.69"/>
        <rect class="cls-4" x="226.61" y="61.39" width="2.62" height="21.68"/>
        <rect class="cls-4" x="209.69" y="73.63" width="11.54" height="2.47"/>
        <polygon class="cls-4" points="216.43 61.39 215.46 64.27 209.13 83.06 206.29 83.06 213.59 61.39 216.43 61.39"/>
        <polygon class="cls-4" points="224.63 83.06 221.79 83.06 214.49 61.39 217.33 61.39 224.63 83.06"/>
        <path class="cls-1" d="M150.88,83.36c-1.42,0-2.68-.32-3.77-.96-1.09-.64-1.93-1.55-2.52-2.73s-.89-2.57-.89-4.18v-.03c0-1.62.3-3.01.89-4.18s1.44-2.07,2.52-2.7c1.09-.64,2.34-.95,3.75-.95s2.69.32,3.77.95c1.08.63,1.92,1.54,2.52,2.7s.89,2.56.89,4.18v.03c0,1.62-.3,3.02-.89,4.19s-1.43,2.08-2.51,2.72-2.33.96-3.77.96ZM150.9,81.04c.9,0,1.68-.22,2.34-.65.66-.43,1.17-1.06,1.54-1.89s.55-1.83.55-3v-.03c0-1.17-.18-2.17-.55-3-.37-.82-.89-1.45-1.56-1.88s-1.45-.65-2.36-.65-1.66.22-2.33.65c-.67.44-1.19,1.06-1.56,1.88-.37.82-.55,1.82-.55,2.99v.03c0,1.17.18,2.17.55,3,.37.83.89,1.46,1.56,1.89s1.45.65,2.36.65Z"/>
        <path class="cls-1" d="M167.3,83.36c-2.11-.11-3.51-1.24-3.91-1.57-2.69-2.24-2.59-5.76-2.57-6.23-.03-.42-.2-4.17,2.61-6.44.38-.31,1.77-1.39,3.85-1.5.21-.01,2.02-.08,3.77.95,1.08.63,1.92,1.54,2.52,2.7s.89,2.56.89,4.18v.03c0,1.62-.3,3.02-.89,4.19s-1.43,2.08-2.51,2.72c-1.75,1.04-3.57.97-3.77.96ZM167.32,81.04c.9,0,1.68-.22,2.34-.65.66-.43,1.17-1.06,1.54-1.89s.55-1.83.55-3v-.03c0-1.17-.18-2.17-.55-3-.37-.82-.89-1.45-1.56-1.88s-1.45-.65-2.36-.65-1.66.22-2.33.65c-.67.44-1.19,1.06-1.56,1.88-.37.82-.55,1.82-.55,2.99v.03c0,1.17.18,2.17.55,3,.37.83.89,1.46,1.56,1.89s1.45.65,2.36.65Z"/>
        <path class="cls-1" d="M194.3,83.36c-1.48,0-2.76-.32-3.83-.96s-1.89-1.55-2.46-2.72c-.57-1.17-.85-2.55-.85-4.13h0c0-1.59.29-2.97.86-4.16s1.38-2.12,2.44-2.78c1.05-.66,2.28-.99,3.69-.99s2.63.32,3.65.95c1.02.63,1.8,1.53,2.35,2.68s.82,2.48.82,4.01v.93h-12.48v-2.02h11.15l-1.32,1.86v-1c0-1.14-.18-2.09-.54-2.85-.36-.76-.85-1.32-1.48-1.69-.63-.37-1.35-.56-2.17-.56s-1.56.19-2.2.58c-.64.39-1.15.96-1.53,1.73s-.56,1.7-.56,2.81v.99c0,1.07.19,1.97.56,2.72.37.75.9,1.32,1.58,1.72.68.4,1.48.6,2.4.6.65,0,1.23-.1,1.74-.29.51-.19.94-.46,1.28-.79.34-.33.59-.71.73-1.14l.04-.13h2.62l-.03.15c-.14.63-.39,1.22-.75,1.76-.36.54-.83,1.02-1.39,1.44-.56.42-1.21.74-1.94.97-.73.23-1.52.34-2.38.34Z"/>
      </g>
    </g>
  </g>
</svg>