<?xml version="1.0" encoding="UTF-8"?>
<svg id="_图层_2" data-name="图层 2" xmlns="http://www.w3.org/2000/svg" viewBox="0 0 287.61 77.27">
  <defs>
    <style>
      .cls-1 {
        fill: #0f7dc1;
      }

      .cls-1, .cls-2 {
        stroke-width: 0px;
      }

      .cls-2 {
        fill: #8ec31e;
      }
    </style>
  </defs>
  <g id="_图层_1-2" data-name="图层 1">
    <g>
      <g>
        <path class="cls-2" d="M43.57,0c7.5-.03,14.93,3.19,20.03,8.69,2.09,2.23,3.8,4.82,5.03,7.62.27.56.42,1.19.78,1.7.49.71,1.3,1.18,2.16,1.26,5.79.86,11.04,4.66,13.64,9.91,2.89,5.61,2.56,12.67-.83,17.99-1.19,1.9-2.73,3.58-4.53,4.93-.86.85-2.36.8-3.16-.09-.97-.99-.69-2.77.52-3.43,9.14-6.92,6.67-21.09-4.27-24.53-.97-.33-2-.41-2.99-.65-1.13-.31-2.2-.89-3.06-1.68-.87-.79-1.54-1.79-1.95-2.9-.42-1.06-.92-2.08-1.49-3.07-3-5.19-8.11-9.08-13.91-10.6-10.52-2.84-21.81,2.28-26.55,12.11-.5.95-.78,2-1.35,2.91-.88,1.43-2.27,2.53-3.86,3.08-.68.25-1.4.32-2.1.47-4.64,1-8.63,4.52-10.17,9.01-2.57,7.22,1.31,15.26,8.54,17.78,1.42.5,2.92.77,4.43.8.39.05,5.72,0,5.9.19,1.23.34,1.92,1.81,1.41,2.97-.33.82-1.18,1.38-2.05,1.37-1.74-.05-6.18.13-7.87-.18C6.73,54.41-.18,46.38,0,37.16c.05-4.3,1.69-8.54,4.52-11.78,2.07-2.38,4.76-4.21,7.73-5.27.81-.29,1.64-.52,2.48-.69.42-.1.85-.14,1.27-.23.7-.17,1.32-.6,1.73-1.18.16-.23.29-.49.39-.76.25-.63.52-1.25.82-1.86.89-1.83,1.99-3.57,3.27-5.16C27.3,3.82,35.38-.04,43.57,0Z"/>
        <path class="cls-1" d="M69.94,7.04c8.53.49,16.47,5.85,20.14,13.56.24.5.47,1.02.68,1.54.17.54.55,1,1.04,1.28.29.17.62.27.96.29.5.08,1,.18,1.5.3,4.45,1.09,8.37,4.15,10.48,8.21,5.25,10-1.07,22.14-12.25,23.65-.76.1-1.52.15-2.28.15-.19.03-5.11-.01-5.14-.01-1-.11-1.84-.97-1.93-1.97-.17-1.34,1.05-2.57,2.38-2.44.83,0,5.03.06,5.76-.09,2.33-.3,4.55-1.3,6.32-2.85,5.48-4.77,5.38-13.41-.22-18.04-1.38-1.16-3.03-1.99-4.78-2.42-.77-.18-1.57-.26-2.29-.59-1.41-.59-2.6-1.67-3.32-3.02-.52-1.1-.94-2.25-1.57-3.29-1.14-1.98-2.63-3.76-4.37-5.23-1.75-1.48-3.75-2.64-5.89-3.44-1.78-.67-3.67-1.04-5.56-1.2-.94-.15-1.71-.97-1.8-1.92-.17-1.25.89-2.47,2.16-2.46Z"/>
        <path class="cls-1" d="M29.21,19.24c3.92,1.41,7.37,4.07,9.74,7.48.79,1.14,1.47,2.35,2.01,3.63.78,1.82.78,2.2-.6,4.05-4.21,5-5.75,12.09-3.97,18.38,1.04,3.43,2.86,6.61,5.29,9.24,3.46,3.55,9.14,5.66,12.74.83.86-1.19,1.32-2.66,1.29-4.13.06-.93-.11-1.86-.49-2.71-2.22-4.77-9.13-4.29-10.44.87.73-5.43,6.53-7.69,11.12-5.11,2.68,1.49,4.06,4.31,4.27,7.3.14,2.23-.6,4.49-2.02,6.21,3.2-3.26,3.82-7.17,1.89-11.61-.26-.61-.49-1.23-.67-1.87-.18-.64-.32-1.28-.42-1.94-.2-1.31-.22-2.64-.07-3.96.32-5.83,2.93-9.12,5.29-11.96.71-1.01,1.19-2.18,1.37-3.4.31-2.04-.22-4.18-1.44-5.84,1.88,2.12,2.86,4.99,2.66,7.82-.07,1.02-.28,2.04-.64,3-.29.79-.7,1.52-.98,2.32-.4,1.09-.69,2.23-.85,3.38-.25,1.73-.23,3.49.07,5.21.1.57.23,1.14.38,1.7,2.29,6.07,2.92,9.29-1.05,16.5,2.76-3.3,4.27-7.6,4.19-11.89.02-1.76-.49-3.47-.48-5.22-.05-6.46,4.22-12.53,10.47-14.34-4.67,1.61-7.64,6.6-6.76,10.85.19.94.43,1.79.67,2.62.07.26.16.54.23.79,2.29,6.78,1.29,14.74-3.24,20.76-9.6,12.82-29.08,11.87-37.37-1.83-1.9-3.15-3-6.76-3.18-10.43-.08-3.32.66-7.09,1.96-10.14.4-.93.86-1.83,1.38-2.7.91-1.57,1.61-3.25,2.08-5,1.82-6.54.11-13.85-4.46-18.88ZM54.14,32.29c2.12,0,4.11,1.5,4.67,3.54.32,1.25.29,2.63-.23,3.82h-.03c.56-2.08-.09-4.43-2.36-5.04-.53-.14-1.09-.16-1.62-.04-.35-.01-.69.03-1.03.12-1.78.47-2.79,2.3-2.41,4.07.22,1.46,1.01,2.82,2.16,3.75.74.54,1.51,1.05,2.15,1.73,2.07,2.07,3.23,5.01,3.15,7.94-1.19-3.51-2.65-5.04-6.17-6.78-3.15-1.53-4.54-3.7-4.54-6.76-.02-3.79,2.47-6.47,6.26-6.35ZM35.53,22.12c4.15.91,8,3.17,10.81,6.36-2.03.14-4.09-.68-5.48-2.16h-.04c-1.51-1.68-3.31-3.1-5.29-4.2Z"/>
      </g>
      <g>
        <path class="cls-1" d="M197.81,4.8c2.92,0,5.25,2.5,5.25,5.53v24.36c0,3.03-2.33,5.53-5.25,5.53-.81,0-1.48-.66-1.48-1.48s.64-1.45,1.43-1.47h.05c1.25,0,2.3-1.13,2.3-2.57V10.32c0-1.44-1.05-2.57-2.3-2.57h-9.6c-1.25,0-2.3,1.13-2.3,2.57v28.42c0,.81-.66,1.48-1.48,1.48s-1.48-.66-1.48-1.48V10.32c0-3.03,2.33-5.53,5.25-5.53h9.6ZM216.29,21.65c.78.25,1.2,1.08.95,1.86l-.51,1.58h10.31c.8,0,1.45.64,1.47,1.43v.05c0,.81-.66,1.48-1.47,1.48h-1.38c-.34,2.73-1.61,5.11-3.64,6.99l5.09,2.37c.74.34,1.06,1.22.71,1.96s-1.22,1.06-1.96.71l-6.58-3.07c-2.29,1.29-5.11,2.15-8.33,2.46-.81.08-1.53-.51-1.61-1.32-.08-.81.51-1.53,1.32-1.61,1.91-.19,3.64-.58,5.14-1.15l-.05-.03c-2.7-1.26-4.03-4.33-3.12-7.16l.05-.16h-2.24c-.81,0-1.48-.66-1.48-1.48s.66-1.48,1.48-1.48h3.19s.8-2.48.8-2.48c.25-.78,1.08-1.2,1.86-.95ZM282.37,4.06c2.85,0,5.16,2.31,5.16,5.16v1.29c0,2.85-2.31,5.16-5.16,5.16h-14.75v1.67c-.03,10.11-.9,14.42-4.46,21.8l-.11.23c-.36.73-1.24,1.04-1.97.68s-1.04-1.24-.68-1.97c3.52-7.24,4.28-11.12,4.28-21.36v-7.5c0-2.85,2.31-5.16,5.16-5.16h12.54ZM233.65,4.07c.81.09,1.4.81,1.31,1.62-.14,1.29-.35,2.52-.64,3.72h9.5c.81,0,1.48.66,1.48,1.48s-.66,1.48-1.48,1.48h-.37c-.1,7.47-1.42,13.37-4.49,18.54,1.47,2.39,3.37,4.6,5.83,6.71.62.53.69,1.46.16,2.08s-1.46.69-2.08.16c-2.31-1.98-4.18-4.06-5.69-6.28-1.64,2.18-3.64,4.26-6.04,6.29-.62.53-1.55.45-2.08-.17s-.45-1.55.17-2.08c2.59-2.19,4.67-4.42,6.29-6.8-.29-.55-.56-1.1-.81-1.67-1.48-3.32-2.34-6.81-3.04-11.59-.12-.81.44-1.56,1.25-1.67.81-.12,1.56.44,1.67,1.25l.06.42c.63,4.23,1.41,7.33,2.67,10.21,2.16-4.32,3.1-9.24,3.18-15.39h-7.09c-.82,2.14-1.94,4.11-3.37,5.9-.51.64-1.44.74-2.07.23s-.74-1.44-.23-2.07c2.44-3.05,3.83-6.71,4.3-11.04.09-.81.81-1.4,1.62-1.31ZM257.66,4.05c.81,0,1.48.66,1.48,1.48v5.91h3.32c.81,0,1.48.66,1.48,1.48s-.66,1.48-1.48,1.48h-3.32s0,8.27,0,8.27c.8-.6,1.53-1.29,2.21-2.06.54-.61,1.47-.67,2.08-.13.61.54.67,1.47.13,2.08-1.29,1.47-2.75,2.67-4.43,3.64v8.49c0,3.02-2.42,5.53-5.35,5.53-.81,0-1.48-.66-1.48-1.48s.64-1.45,1.43-1.47h.05c1.28,0,2.4-1.16,2.4-2.57v-7.1c-.99.37-2.04.69-3.16.96-.79.19-1.59-.3-1.78-1.09-.19-.79.3-1.59,1.09-1.78,1.42-.34,2.7-.76,3.85-1.28v-10.01s-3.14,0-3.14,0c-.8,0-1.45-.64-1.47-1.43v-.05c0-.81.66-1.48,1.47-1.48h3.14v-5.91c0-.81.66-1.48,1.48-1.48ZM174.11,4.06c.81,0,1.48.66,1.48,1.48v5.16h4.24c.8,0,1.45.64,1.47,1.43v.05c0,.81-.66,1.48-1.47,1.48h-4.24s0,1.25,0,1.25c2.71.54,4.43,2.58,4.43,5.18,0,2.33.04,4.27.18,6.48.21,3.24.6,5.71,1.15,6.87l.02.04c.32.73,0,1.58-.72,1.92-.74.35-1.62.03-1.96-.7-.76-1.61-1.19-4.33-1.43-7.94l-.02-.3c-.13-2.17-.17-4.08-.17-6.37,0-.98-.5-1.76-1.48-2.13v20.78c0,.81-.66,1.48-1.48,1.48s-1.48-.66-1.48-1.48v-20.78c-.97.37-1.48,1.15-1.48,2.13,0,2.29-.04,4.2-.17,6.37l-.02.3c-.23,3.61-.67,6.33-1.43,7.94-.35.74-1.23,1.05-1.96.7-.72-.34-1.04-1.19-.72-1.92l.02-.04c.55-1.16.94-3.63,1.15-6.87.14-2.21.18-4.14.18-6.48,0-2.6,1.72-4.64,4.43-5.18v-1.25s-4.43,0-4.43,0c-.81,0-1.48-.66-1.48-1.48s.66-1.48,1.48-1.48h4.43v-5.21c.02-.79.68-1.43,1.48-1.43ZM131.87,4.06c.81,0,1.48.66,1.48,1.48v5.16h4.24c.8,0,1.45.64,1.47,1.43v.05c0,.81-.66,1.48-1.47,1.48h-4.24s0,1.25,0,1.25c2.71.54,4.43,2.58,4.43,5.18,0,2.33.04,4.27.18,6.48.21,3.24.6,5.71,1.15,6.87l.02.04c.32.73,0,1.58-.72,1.92-.74.35-1.62.03-1.96-.7-.76-1.61-1.19-4.33-1.43-7.94l-.02-.3c-.13-2.17-.17-4.08-.17-6.37,0-.98-.5-1.76-1.48-2.13v20.78c0,.81-.66,1.48-1.48,1.48s-1.48-.66-1.48-1.48v-20.78c-.97.37-1.48,1.15-1.48,2.13,0,2.29-.04,4.2-.17,6.37l-.02.3c-.23,3.61-.67,6.33-1.43,7.94-.35.74-1.23,1.05-1.96.7-.72-.34-1.04-1.19-.72-1.92l.02-.04c.55-1.16.94-3.63,1.15-6.87.14-2.21.18-4.14.18-6.48,0-2.6,1.72-4.64,4.43-5.18v-1.25s-4.43,0-4.43,0c-.81,0-1.48-.66-1.48-1.48s.66-1.48,1.48-1.48h4.43v-5.21c.02-.79.68-1.43,1.48-1.43ZM277.57,17.15c.81,0,1.48.66,1.48,1.48v2.03h6.27c.8,0,1.45.64,1.47,1.43v.05c0,.81-.66,1.48-1.47,1.48h-6.27s0,2.58,0,2.58h3.32c2.44,0,4.43,1.98,4.43,4.43v4.43c0,2.44-1.98,4.43-4.43,4.43h-9.78c-2.44,0-4.43-1.98-4.43-4.43v-4.43c0-2.44,1.98-4.43,4.43-4.43h3.5v-2.58h-6.27s0-.01,0-.01c-.06,0-.12.01-.18.01-.81,0-1.48-.66-1.48-1.48s.66-1.48,1.48-1.48c.06,0,.12,0,.18.01h0s6.27-.01,6.27-.01v-2.07c.02-.79.68-1.43,1.48-1.43ZM154.93,26.19c2.44,0,4.43,1.98,4.43,4.43v4.43c0,2.44-1.98,4.43-4.43,4.43h-9.78c-2.44,0-4.43-1.98-4.43-4.43v-4.43c0-2.44,1.98-4.43,4.43-4.43h9.78ZM282.37,29.14h-9.78c-.81,0-1.48.66-1.48,1.48v4.43c0,.81.66,1.48,1.48,1.48h9.78c.81,0,1.48-.66,1.48-1.48v-4.43c0-.81-.66-1.48-1.48-1.48ZM154.93,29.14h-9.78c-.81,0-1.48.66-1.48,1.48v4.43c0,.81.66,1.48,1.48,1.48h9.78c.81,0,1.48-.66,1.48-1.48v-4.43c0-.81-.66-1.48-1.48-1.48ZM215.78,28.03l-.34,1.07c-.46,1.42.21,2.95,1.56,3.58l2.06.96c1.98-1.46,3.23-3.38,3.61-5.61h-6.89ZM194.21,17.34c2.44,0,4.43,1.98,4.43,4.43v6.64c0,2.44-1.98,4.43-4.43,4.43h-2.4c-2.44,0-4.43-1.98-4.43-4.43v-6.64c0-2.44,1.98-4.43,4.43-4.43h2.4ZM194.21,20.29h-2.4c-.81,0-1.48.66-1.48,1.48v6.64c0,.81.66,1.48,1.48,1.48h2.4c.81,0,1.48-.66,1.48-1.48v-6.64c0-.81-.66-1.48-1.48-1.48ZM158.8,4.8c.81,0,1.48.66,1.48,1.48s-.66,1.48-1.48,1.48h-9.6s-.69,3.87-.69,3.87h4.7c2.44,0,4.43,1.98,4.43,4.43,0,.28-.03.55-.08.82l-.86,4.53h2.65c.81,0,1.48.66,1.48,1.48s-.66,1.48-1.48,1.48h-19.18c-.81,0-1.48-.66-1.48-1.48s.66-1.48,1.48-1.48h3.61s1.21-6.82,1.21-6.82h-2.79s-.05,0-.05,0c-.79-.02-1.43-.68-1.43-1.47s.66-1.48,1.48-1.48h3.31s.69-3.87.69-3.87h-5.1c-.81,0-1.48-.66-1.48-1.48s.66-1.48,1.48-1.48h17.71ZM224.61,17.04v.05c.17.95,1.08,2.31,1.88,2.84l.05.03c.69.44.89,1.35.46,2.04-.44.69-1.35.89-2.04.46-1.51-.96-2.94-3.07-3.25-4.87-.14-.8.4-1.57,1.21-1.7.79-.13,1.54.38,1.69,1.16ZM214.56,15.88c.8.14,1.34.9,1.21,1.7-.31,1.8-1.74,3.91-3.25,4.87-.69.44-1.6.23-2.04-.46-.44-.69-.23-1.6.46-2.04l.05-.03c.8-.54,1.71-1.9,1.87-2.84v-.05c.17-.78.91-1.3,1.7-1.16ZM218.74,4.43c.81,0,1.48.66,1.48,1.48v6.09h6.09c.81,0,1.48.66,1.48,1.48s-.64,1.45-1.43,1.47h-.05s-6.09,0-6.09,0v6.09c0,.81-.66,1.48-1.48,1.48s-1.48-.66-1.48-1.48v-6.09h-6.09c-.81,0-1.48-.66-1.48-1.48s.66-1.48,1.48-1.48h6.09v-6.13c.02-.79.68-1.43,1.48-1.43ZM153.21,14.57h-5.22s-1.21,6.82-1.21,6.82h6.92l.96-5.07c.02-.09.03-.18.03-.27,0-.81-.66-1.48-1.48-1.48ZM197.16,11.44c.81,0,1.48.66,1.48,1.48s-.66,1.48-1.48,1.48h-8.3c-.81,0-1.48-.66-1.48-1.48s.66-1.48,1.48-1.48h8.3ZM282.37,7.01h-12.54c-1.22,0-2.21.99-2.21,2.21v3.5h14.75c1.2,0,2.18-.96,2.21-2.16v-.06s0-1.29,0-1.29c0-1.22-.99-2.21-2.21-2.21ZM224.86,5.18c.81.12,1.36.87,1.24,1.68-.22,1.47-.92,2.75-1.97,3.66-.61.54-1.55.47-2.08-.14-.54-.61-.47-1.55.14-2.08l.05-.05c.49-.45.82-1.07.93-1.82v-.05c.15-.78.89-1.31,1.68-1.2ZM214.29,6.38v.05c.12.75.45,1.38.94,1.82l.05.05c.61.54.68,1.47.14,2.08-.54.61-1.47.68-2.08.14-1.04-.91-1.75-2.19-1.97-3.66-.12-.81.44-1.56,1.24-1.68.79-.12,1.53.42,1.67,1.2Z"/>
        <path class="cls-1" d="M156.65,52.93c-4.38,0-7.93,3.55-7.93,7.93s3.55,7.93,7.93,7.93,7.93-3.55,7.93-7.93-3.55-7.93-7.93-7.93ZM156.65,66.19c-2.94,0-5.33-2.39-5.33-5.33s2.39-5.33,5.33-5.33,5.33,2.39,5.33,5.33-2.39,5.33-5.33,5.33Z"/>
        <rect class="cls-2" x="184.37" y="47.22" width="2.92" height="2.92"/>
        <rect class="cls-1" x="126.64" y="47.22" width="2.61" height="21.58"/>
        <rect class="cls-1" x="143.94" y="47.22" width="2.61" height="21.58"/>
        <rect class="cls-1" x="166.85" y="47.22" width="2.61" height="21.58"/>
        <rect class="cls-1" x="184.53" y="52.46" width="2.61" height="16.34"/>
        <rect class="cls-1" x="190.45" y="47.22" width="2.61" height="21.58"/>
        <polygon class="cls-1" points="137.77 66.99 135.16 66.99 127.9 47.22 130.52 47.22 137.77 66.99"/>
        <polygon class="cls-1" points="135.76 66.99 138.38 66.99 145.63 47.22 143.02 47.22 135.76 66.99"/>
        <path class="cls-1" d="M166.85,60.86c0,3.71,3.55,7.93,7.93,7.93s7.93-3.55,7.93-7.93c0-4.38-3.55-7.93-7.93-7.93s-7.93,4.08-7.93,7.93ZM169.44,60.86c0-2.95,2.39-5.33,5.33-5.33s5.33,2.39,5.33,5.33-2.39,5.33-5.33,5.33c-2.95,0-5.33-2.39-5.33-5.33Z"/>
        <g>
          <rect class="cls-2" x="257.27" y="52.93" width="2.59" height="15.72"/>
          <path class="cls-2" d="M251.85,52.93c-4.38,0-7.93,3.55-7.93,7.93s3.55,7.93,7.93,7.93,7.93-4.22,7.93-7.93c0-3.86-3.55-7.93-7.93-7.93ZM251.86,66.2c-2.95,0-5.33-2.39-5.33-5.33s2.39-5.33,5.33-5.33,5.33,2.39,5.33,5.33-2.39,5.33-5.33,5.33Z"/>
        </g>
        <g>
          <rect class="cls-2" x="285.02" y="52.93" width="2.59" height="15.72"/>
          <path class="cls-2" d="M279.6,52.93c-4.38,0-7.93,3.55-7.93,7.93s3.55,7.93,7.93,7.93,7.93-4.22,7.93-7.93-3.55-7.93-7.93-7.93ZM279.61,66.2c-2.95,0-5.33-2.39-5.33-5.33,0-2.95,2.39-5.33,5.33-5.33s5.33,2.39,5.33,5.33-2.39,5.33-5.33,5.33Z"/>
        </g>
        <g>
          <rect class="cls-2" x="224.85" y="47.22" width="2.61" height="21.58"/>
          <path class="cls-2" d="M231.92,68.8h-6.44v-2.8h6.44c3.89,0,7.05-3.16,7.05-7.05v-1.87c0-3.89-3.16-7.05-7.05-7.05h-6.07v-2.8h6.07c5.43,0,9.85,4.42,9.85,9.85v1.87c0,5.43-4.42,9.85-9.85,9.85Z"/>
        </g>
        <rect class="cls-1" x="197.99" y="59.61" width="12.27" height="2.51"/>
        <path class="cls-1" d="M208.03,64.05c-.97,1.3-2.52,2.14-4.26,2.14-2.94,0-5.33-2.39-5.33-5.33s2.39-5.33,5.33-5.33,5.33,2.39,5.33,5.33c0,.43-.06.85-.15,1.25h2.65c.07-.41.11-.83.11-1.25,0-4.38-3.55-7.93-7.93-7.93s-7.93,3.55-7.93,7.93,3.55,7.93,7.93,7.93c3.25,0,6.04-1.95,7.26-4.75h-3Z"/>
        <g>
          <rect class="cls-2" x="264.78" y="50.16" width="2.27" height="7.81" transform="translate(211.85 319.98) rotate(-90)"/>
          <path class="cls-2" d="M269.82,66.01v2.42c-.43.1-.92.19-1.47.24-.57.05-1.08.06-1.53.04-.17,0-1.1-.02-1.84-.76-.47-.47-.76-1.12-.76-1.84v-18.89h2.61v18.08c0,.54.44.98.98.98.25,0,.52,0,.81-.04.45-.05.85-.13,1.2-.22Z"/>
        </g>
      </g>
    </g>
  </g>
</svg>